<mxfile host="app.diagrams.net" modified="2021-02-25T11:09:30.135Z" agent="5.0 (Windows NT 10.0; Win64; x64) AppleWebKit/537.36 (KHTML, like Gecko) Chrome/88.0.4324.182 Safari/537.36" etag="ZeKTwNgiOeMkMXMri5PD" version="14.4.3" type="github">
  <diagram id="prtHgNgQTEPvFCAcTncT" name="Bug fixing workflow">
    <mxGraphModel dx="1185" dy="614" grid="1" gridSize="10" guides="1" tooltips="1" connect="1" arrows="1" fold="1" page="1" pageScale="1" pageWidth="827" pageHeight="1169" math="0" shadow="0">
      <root>
        <mxCell id="0" />
        <mxCell id="1" parent="0" />
        <mxCell id="dNxyNK7c78bLwvsdeMH5-19" value="Bug Fixing Workflow" style="swimlane;html=1;childLayout=stackLayout;resizeParent=1;resizeParentMax=0;horizontal=0;startSize=20;horizontalStack=0;" parent="1" vertex="1">
          <mxGeometry x="110" y="110" width="1280" height="470" as="geometry" />
        </mxCell>
        <mxCell id="dNxyNK7c78bLwvsdeMH5-20" value="Tester" style="swimlane;html=1;startSize=20;horizontal=0;" parent="dNxyNK7c78bLwvsdeMH5-19" vertex="1">
          <mxGeometry x="20" width="1260" height="120" as="geometry" />
        </mxCell>
        <mxCell id="_TshI3vmn3wsHt40VHCj-14" style="edgeStyle=orthogonalEdgeStyle;rounded=0;orthogonalLoop=1;jettySize=auto;html=1;exitX=1;exitY=0.5;exitDx=0;exitDy=0;entryX=0;entryY=0.5;entryDx=0;entryDy=0;" edge="1" parent="dNxyNK7c78bLwvsdeMH5-20" source="_TshI3vmn3wsHt40VHCj-9" target="_TshI3vmn3wsHt40VHCj-13">
          <mxGeometry relative="1" as="geometry" />
        </mxCell>
        <mxCell id="_TshI3vmn3wsHt40VHCj-9" value="Testing" style="rounded=0;whiteSpace=wrap;html=1;fontFamily=Helvetica;fontSize=12;fontColor=#000000;align=center;" vertex="1" parent="dNxyNK7c78bLwvsdeMH5-20">
          <mxGeometry x="400" y="39" width="80" height="60" as="geometry" />
        </mxCell>
        <mxCell id="_TshI3vmn3wsHt40VHCj-13" value="OK?" style="rhombus;whiteSpace=wrap;html=1;" vertex="1" parent="dNxyNK7c78bLwvsdeMH5-20">
          <mxGeometry x="530" y="29" width="80" height="80" as="geometry" />
        </mxCell>
        <mxCell id="_TshI3vmn3wsHt40VHCj-32" value="&lt;font style=&quot;font-size: 9px&quot; color=&quot;#ff3333&quot;&gt;Feedback&lt;/font&gt;" style="text;html=1;align=center;verticalAlign=middle;resizable=0;points=[];autosize=1;" vertex="1" parent="dNxyNK7c78bLwvsdeMH5-20">
          <mxGeometry x="650" y="89" width="60" height="20" as="geometry" />
        </mxCell>
        <mxCell id="dNxyNK7c78bLwvsdeMH5-21" value="Developer" style="swimlane;html=1;startSize=20;horizontal=0;" parent="dNxyNK7c78bLwvsdeMH5-19" vertex="1">
          <mxGeometry x="20" y="120" width="1260" height="120" as="geometry" />
        </mxCell>
        <mxCell id="dNxyNK7c78bLwvsdeMH5-26" value="- Create investigate report&lt;br&gt;- Create new issue gitlab" style="rounded=0;whiteSpace=wrap;html=1;fontFamily=Helvetica;fontSize=12;fontColor=#000000;align=center;" parent="dNxyNK7c78bLwvsdeMH5-21" vertex="1">
          <mxGeometry x="240" y="39" width="150" height="50" as="geometry" />
        </mxCell>
        <mxCell id="_TshI3vmn3wsHt40VHCj-7" value="Fix bug" style="rounded=0;whiteSpace=wrap;html=1;fontFamily=Helvetica;fontSize=12;fontColor=#000000;align=center;" vertex="1" parent="dNxyNK7c78bLwvsdeMH5-21">
          <mxGeometry x="400" y="39" width="80" height="50" as="geometry" />
        </mxCell>
        <mxCell id="_TshI3vmn3wsHt40VHCj-34" value="&lt;font style=&quot;font-size: 9px&quot; color=&quot;#ff3333&quot;&gt;Feedback&lt;/font&gt;" style="text;html=1;align=center;verticalAlign=middle;resizable=0;points=[];autosize=1;" vertex="1" parent="dNxyNK7c78bLwvsdeMH5-21">
          <mxGeometry x="717" y="99" width="60" height="20" as="geometry" />
        </mxCell>
        <mxCell id="_TshI3vmn3wsHt40VHCj-40" style="edgeStyle=orthogonalEdgeStyle;rounded=0;orthogonalLoop=1;jettySize=auto;html=1;exitX=1;exitY=0.5;exitDx=0;exitDy=0;entryX=0;entryY=0.5;entryDx=0;entryDy=0;" edge="1" parent="dNxyNK7c78bLwvsdeMH5-21" source="_TshI3vmn3wsHt40VHCj-39" target="dNxyNK7c78bLwvsdeMH5-26">
          <mxGeometry relative="1" as="geometry" />
        </mxCell>
        <mxCell id="_TshI3vmn3wsHt40VHCj-39" value="Analysis bug" style="rounded=0;whiteSpace=wrap;html=1;fontFamily=Helvetica;fontSize=12;fontColor=#000000;align=center;" vertex="1" parent="dNxyNK7c78bLwvsdeMH5-21">
          <mxGeometry x="80" y="40" width="100" height="50" as="geometry" />
        </mxCell>
        <mxCell id="_TshI3vmn3wsHt40VHCj-43" value="Create merge request" style="rounded=0;whiteSpace=wrap;html=1;labelBackgroundColor=#ffffff;" vertex="1" parent="dNxyNK7c78bLwvsdeMH5-21">
          <mxGeometry x="590" y="39" width="120" height="50" as="geometry" />
        </mxCell>
        <mxCell id="_TshI3vmn3wsHt40VHCj-48" value="&lt;font style=&quot;font-size: 9px&quot; color=&quot;#ff3333&quot;&gt;Feedback&lt;/font&gt;" style="text;html=1;align=center;verticalAlign=middle;resizable=0;points=[];autosize=1;" vertex="1" parent="dNxyNK7c78bLwvsdeMH5-21">
          <mxGeometry x="520" y="29" width="60" height="20" as="geometry" />
        </mxCell>
        <mxCell id="_TshI3vmn3wsHt40VHCj-31" value="&lt;font style=&quot;font-size: 9px&quot; color=&quot;#ff3333&quot;&gt;Confirming&lt;/font&gt;" style="text;html=1;align=center;verticalAlign=middle;resizable=0;points=[];autosize=1;" vertex="1" parent="dNxyNK7c78bLwvsdeMH5-21">
          <mxGeometry x="440" y="9" width="60" height="20" as="geometry" />
        </mxCell>
        <mxCell id="_TshI3vmn3wsHt40VHCj-38" style="edgeStyle=orthogonalEdgeStyle;rounded=0;orthogonalLoop=1;jettySize=auto;html=1;exitX=0.5;exitY=0;exitDx=0;exitDy=0;entryX=0.392;entryY=0.987;entryDx=0;entryDy=0;entryPerimeter=0;" edge="1" parent="dNxyNK7c78bLwvsdeMH5-19" source="dNxyNK7c78bLwvsdeMH5-24" target="_TshI3vmn3wsHt40VHCj-39">
          <mxGeometry relative="1" as="geometry">
            <mxPoint x="90" y="200" as="targetPoint" />
          </mxGeometry>
        </mxCell>
        <mxCell id="_TshI3vmn3wsHt40VHCj-4" style="edgeStyle=orthogonalEdgeStyle;rounded=0;orthogonalLoop=1;jettySize=auto;html=1;exitX=0;exitY=0.5;exitDx=0;exitDy=0;entryX=0.59;entryY=0.995;entryDx=0;entryDy=0;entryPerimeter=0;" edge="1" parent="dNxyNK7c78bLwvsdeMH5-19" source="_TshI3vmn3wsHt40VHCj-2" target="dNxyNK7c78bLwvsdeMH5-26">
          <mxGeometry relative="1" as="geometry" />
        </mxCell>
        <mxCell id="_TshI3vmn3wsHt40VHCj-8" style="edgeStyle=orthogonalEdgeStyle;rounded=0;orthogonalLoop=1;jettySize=auto;html=1;exitX=0.5;exitY=0;exitDx=0;exitDy=0;entryX=0.5;entryY=1;entryDx=0;entryDy=0;" edge="1" parent="dNxyNK7c78bLwvsdeMH5-19" source="_TshI3vmn3wsHt40VHCj-2" target="_TshI3vmn3wsHt40VHCj-7">
          <mxGeometry relative="1" as="geometry" />
        </mxCell>
        <mxCell id="_TshI3vmn3wsHt40VHCj-10" style="edgeStyle=orthogonalEdgeStyle;rounded=0;orthogonalLoop=1;jettySize=auto;html=1;exitX=0.5;exitY=0;exitDx=0;exitDy=0;entryX=0.5;entryY=1;entryDx=0;entryDy=0;" edge="1" parent="dNxyNK7c78bLwvsdeMH5-19" source="_TshI3vmn3wsHt40VHCj-7" target="_TshI3vmn3wsHt40VHCj-9">
          <mxGeometry relative="1" as="geometry" />
        </mxCell>
        <mxCell id="_TshI3vmn3wsHt40VHCj-15" style="edgeStyle=orthogonalEdgeStyle;rounded=0;orthogonalLoop=1;jettySize=auto;html=1;exitX=0.5;exitY=1;exitDx=0;exitDy=0;entryX=0.02;entryY=0.714;entryDx=0;entryDy=0;entryPerimeter=0;" edge="1" parent="dNxyNK7c78bLwvsdeMH5-19" source="_TshI3vmn3wsHt40VHCj-13">
          <mxGeometry relative="1" as="geometry">
            <mxPoint x="461" y="253.27999999999997" as="targetPoint" />
            <Array as="points">
              <mxPoint x="590" y="253" />
            </Array>
          </mxGeometry>
        </mxCell>
        <mxCell id="_TshI3vmn3wsHt40VHCj-42" style="edgeStyle=orthogonalEdgeStyle;rounded=0;orthogonalLoop=1;jettySize=auto;html=1;exitX=0.5;exitY=1;exitDx=0;exitDy=0;" edge="1" parent="dNxyNK7c78bLwvsdeMH5-19" source="dNxyNK7c78bLwvsdeMH5-26" target="dNxyNK7c78bLwvsdeMH5-34">
          <mxGeometry relative="1" as="geometry">
            <Array as="points">
              <mxPoint x="335" y="299" />
              <mxPoint x="335" y="299" />
            </Array>
          </mxGeometry>
        </mxCell>
        <mxCell id="_TshI3vmn3wsHt40VHCj-44" style="edgeStyle=orthogonalEdgeStyle;rounded=0;orthogonalLoop=1;jettySize=auto;html=1;exitX=1;exitY=0.5;exitDx=0;exitDy=0;entryX=0.5;entryY=0;entryDx=0;entryDy=0;" edge="1" parent="dNxyNK7c78bLwvsdeMH5-19" source="_TshI3vmn3wsHt40VHCj-13" target="_TshI3vmn3wsHt40VHCj-43">
          <mxGeometry relative="1" as="geometry" />
        </mxCell>
        <mxCell id="_TshI3vmn3wsHt40VHCj-45" style="edgeStyle=orthogonalEdgeStyle;rounded=0;orthogonalLoop=1;jettySize=auto;html=1;exitX=0.5;exitY=1;exitDx=0;exitDy=0;" edge="1" parent="dNxyNK7c78bLwvsdeMH5-19" source="_TshI3vmn3wsHt40VHCj-43" target="_TshI3vmn3wsHt40VHCj-18">
          <mxGeometry relative="1" as="geometry" />
        </mxCell>
        <mxCell id="dNxyNK7c78bLwvsdeMH5-22" value="Customer" style="swimlane;html=1;startSize=20;horizontal=0;" parent="dNxyNK7c78bLwvsdeMH5-19" vertex="1">
          <mxGeometry x="20" y="240" width="1260" height="230" as="geometry" />
        </mxCell>
        <mxCell id="_TshI3vmn3wsHt40VHCj-3" style="edgeStyle=orthogonalEdgeStyle;rounded=0;orthogonalLoop=1;jettySize=auto;html=1;exitX=1;exitY=0.5;exitDx=0;exitDy=0;entryX=0.5;entryY=1;entryDx=0;entryDy=0;" edge="1" parent="dNxyNK7c78bLwvsdeMH5-22" source="dNxyNK7c78bLwvsdeMH5-34" target="_TshI3vmn3wsHt40VHCj-2">
          <mxGeometry relative="1" as="geometry" />
        </mxCell>
        <mxCell id="dNxyNK7c78bLwvsdeMH5-34" value="Reviewing" style="rounded=0;whiteSpace=wrap;html=1;fontFamily=Helvetica;fontSize=12;fontColor=#000000;align=center;" parent="dNxyNK7c78bLwvsdeMH5-22" vertex="1">
          <mxGeometry x="260" y="129" width="120" height="60" as="geometry" />
        </mxCell>
        <mxCell id="_TshI3vmn3wsHt40VHCj-2" value="OK?" style="rhombus;whiteSpace=wrap;html=1;" vertex="1" parent="dNxyNK7c78bLwvsdeMH5-22">
          <mxGeometry x="400" y="49" width="80" height="80" as="geometry" />
        </mxCell>
        <mxCell id="_TshI3vmn3wsHt40VHCj-5" value="Yes" style="text;html=1;align=center;verticalAlign=middle;resizable=0;points=[];autosize=1;" vertex="1" parent="dNxyNK7c78bLwvsdeMH5-22">
          <mxGeometry x="444" y="29" width="40" height="20" as="geometry" />
        </mxCell>
        <mxCell id="_TshI3vmn3wsHt40VHCj-6" value="No" style="text;html=1;align=center;verticalAlign=middle;resizable=0;points=[];autosize=1;" vertex="1" parent="dNxyNK7c78bLwvsdeMH5-22">
          <mxGeometry x="354" y="59" width="30" height="20" as="geometry" />
        </mxCell>
        <mxCell id="_TshI3vmn3wsHt40VHCj-20" style="edgeStyle=orthogonalEdgeStyle;rounded=0;orthogonalLoop=1;jettySize=auto;html=1;exitX=1;exitY=0.5;exitDx=0;exitDy=0;entryX=0;entryY=0.5;entryDx=0;entryDy=0;" edge="1" parent="dNxyNK7c78bLwvsdeMH5-22" source="_TshI3vmn3wsHt40VHCj-18" target="_TshI3vmn3wsHt40VHCj-19">
          <mxGeometry relative="1" as="geometry" />
        </mxCell>
        <mxCell id="_TshI3vmn3wsHt40VHCj-18" value="Reviewing" style="rounded=0;whiteSpace=wrap;html=1;fontFamily=Helvetica;fontSize=12;fontColor=#000000;align=center;" vertex="1" parent="dNxyNK7c78bLwvsdeMH5-22">
          <mxGeometry x="590" y="119" width="120" height="60" as="geometry" />
        </mxCell>
        <mxCell id="_TshI3vmn3wsHt40VHCj-50" style="edgeStyle=orthogonalEdgeStyle;rounded=0;orthogonalLoop=1;jettySize=auto;html=1;exitX=1;exitY=0.5;exitDx=0;exitDy=0;entryX=0;entryY=0.5;entryDx=0;entryDy=0;" edge="1" parent="dNxyNK7c78bLwvsdeMH5-22" source="_TshI3vmn3wsHt40VHCj-19" target="_TshI3vmn3wsHt40VHCj-49">
          <mxGeometry relative="1" as="geometry" />
        </mxCell>
        <mxCell id="_TshI3vmn3wsHt40VHCj-19" value="OK?" style="rhombus;whiteSpace=wrap;html=1;" vertex="1" parent="dNxyNK7c78bLwvsdeMH5-22">
          <mxGeometry x="750" y="109" width="80" height="80" as="geometry" />
        </mxCell>
        <mxCell id="_TshI3vmn3wsHt40VHCj-21" value="Yes" style="text;html=1;align=center;verticalAlign=middle;resizable=0;points=[];autosize=1;" vertex="1" parent="dNxyNK7c78bLwvsdeMH5-22">
          <mxGeometry x="830" y="119" width="40" height="20" as="geometry" />
        </mxCell>
        <mxCell id="_TshI3vmn3wsHt40VHCj-30" value="&lt;font style=&quot;font-size: 9px&quot; color=&quot;#ff3333&quot;&gt;In progress&lt;/font&gt;" style="text;html=1;align=center;verticalAlign=middle;resizable=0;points=[];autosize=1;" vertex="1" parent="dNxyNK7c78bLwvsdeMH5-22">
          <mxGeometry x="384" y="19" width="60" height="20" as="geometry" />
        </mxCell>
        <mxCell id="_TshI3vmn3wsHt40VHCj-33" value="&lt;font style=&quot;font-size: 9px&quot; color=&quot;#ff3333&quot;&gt;Close&lt;/font&gt;" style="text;html=1;align=center;verticalAlign=middle;resizable=0;points=[];autosize=1;" vertex="1" parent="dNxyNK7c78bLwvsdeMH5-22">
          <mxGeometry x="1025" y="129" width="40" height="20" as="geometry" />
        </mxCell>
        <mxCell id="dNxyNK7c78bLwvsdeMH5-24" value="Register new issue" style="rounded=0;whiteSpace=wrap;html=1;fontFamily=Helvetica;fontSize=12;fontColor=#000000;align=center;" parent="dNxyNK7c78bLwvsdeMH5-22" vertex="1">
          <mxGeometry x="80" y="110" width="80" height="60" as="geometry" />
        </mxCell>
        <mxCell id="dNxyNK7c78bLwvsdeMH5-23" value="" style="ellipse;whiteSpace=wrap;html=1;" parent="dNxyNK7c78bLwvsdeMH5-22" vertex="1">
          <mxGeometry x="20" y="120" width="40" height="40" as="geometry" />
        </mxCell>
        <mxCell id="dNxyNK7c78bLwvsdeMH5-25" value="" style="edgeStyle=orthogonalEdgeStyle;rounded=0;orthogonalLoop=1;jettySize=auto;html=1;" parent="dNxyNK7c78bLwvsdeMH5-22" source="dNxyNK7c78bLwvsdeMH5-23" target="dNxyNK7c78bLwvsdeMH5-24" edge="1">
          <mxGeometry relative="1" as="geometry" />
        </mxCell>
        <mxCell id="_TshI3vmn3wsHt40VHCj-29" value="&lt;font style=&quot;font-size: 9px&quot; color=&quot;#ff3333&quot;&gt;New&lt;/font&gt;" style="text;html=1;align=center;verticalAlign=middle;resizable=0;points=[];autosize=1;" vertex="1" parent="dNxyNK7c78bLwvsdeMH5-22">
          <mxGeometry x="90" y="59" width="30" height="20" as="geometry" />
        </mxCell>
        <mxCell id="_TshI3vmn3wsHt40VHCj-47" value="&lt;font style=&quot;font-size: 9px&quot; color=&quot;#ff3333&quot;&gt;Confirming&lt;/font&gt;" style="text;html=1;align=center;verticalAlign=middle;resizable=0;points=[];autosize=1;" vertex="1" parent="dNxyNK7c78bLwvsdeMH5-22">
          <mxGeometry x="650" y="59" width="60" height="20" as="geometry" />
        </mxCell>
        <mxCell id="_TshI3vmn3wsHt40VHCj-49" value="Merge request" style="rounded=0;whiteSpace=wrap;html=1;fontFamily=Helvetica;fontSize=12;fontColor=#000000;align=center;labelBackgroundColor=#ffffff;" vertex="1" parent="dNxyNK7c78bLwvsdeMH5-22">
          <mxGeometry x="890" y="119" width="120" height="60" as="geometry" />
        </mxCell>
        <mxCell id="_TshI3vmn3wsHt40VHCj-52" value="" style="ellipse;whiteSpace=wrap;html=1;" vertex="1" parent="dNxyNK7c78bLwvsdeMH5-22">
          <mxGeometry x="1090" y="129" width="40" height="40" as="geometry" />
        </mxCell>
        <mxCell id="_TshI3vmn3wsHt40VHCj-16" value="No" style="text;html=1;align=center;verticalAlign=middle;resizable=0;points=[];autosize=1;" vertex="1" parent="1">
          <mxGeometry x="675" y="219" width="30" height="20" as="geometry" />
        </mxCell>
        <mxCell id="_TshI3vmn3wsHt40VHCj-22" style="edgeStyle=orthogonalEdgeStyle;rounded=0;orthogonalLoop=1;jettySize=auto;html=1;exitX=0.5;exitY=0;exitDx=0;exitDy=0;" edge="1" parent="1" source="_TshI3vmn3wsHt40VHCj-19">
          <mxGeometry relative="1" as="geometry">
            <mxPoint x="570" y="349" as="targetPoint" />
            <Array as="points">
              <mxPoint x="920" y="349" />
            </Array>
          </mxGeometry>
        </mxCell>
        <mxCell id="_TshI3vmn3wsHt40VHCj-28" value="No" style="text;html=1;align=center;verticalAlign=middle;resizable=0;points=[];autosize=1;" vertex="1" parent="1">
          <mxGeometry x="915" y="439" width="30" height="20" as="geometry" />
        </mxCell>
        <mxCell id="_TshI3vmn3wsHt40VHCj-46" value="Yes" style="text;html=1;align=center;verticalAlign=middle;resizable=0;points=[];autosize=1;" vertex="1" parent="1">
          <mxGeometry x="740" y="159" width="40" height="20" as="geometry" />
        </mxCell>
        <mxCell id="_TshI3vmn3wsHt40VHCj-51" style="edgeStyle=orthogonalEdgeStyle;rounded=0;orthogonalLoop=1;jettySize=auto;html=1;exitX=1;exitY=0.5;exitDx=0;exitDy=0;" edge="1" parent="1" source="_TshI3vmn3wsHt40VHCj-49">
          <mxGeometry relative="1" as="geometry">
            <mxPoint x="1220" y="499.16666666666674" as="targetPoint" />
          </mxGeometry>
        </mxCell>
      </root>
    </mxGraphModel>
  </diagram>
</mxfile>
